<svg width="41" height="23" viewBox="0 0 41 23" fill="none" xmlns="http://www.w3.org/2000/svg">
<path d="M8.1385 0.843351C7.98225 0.898039 7.67757 1.1871 7.56819 1.3746C7.5135 1.46835 7.45882 2.03866 7.43538 2.74179L7.39632 3.95273L5.87288 3.9996C5.03694 4.02304 4.34163 4.04648 4.326 4.05429C4.31038 4.0621 4.25569 4.17929 4.201 4.31991C4.05257 4.66366 4.14632 4.94491 4.47444 5.10898C4.71663 5.23398 5.04475 5.24179 8.66975 5.22616L12.6073 5.20273L12.7948 4.98398C13.0213 4.71835 13.0369 4.46835 12.8182 4.19491L12.6619 3.99179H10.6698H8.68538V3.01523V2.03866H19.0369H29.3885L29.3729 10.1793L29.3494 18.3277L24.7948 18.3512C21.1932 18.3668 20.2401 18.3512 20.2088 18.273C19.8494 17.2262 19.5213 16.7262 18.8807 16.2418C17.8651 15.4684 16.4119 15.3512 15.2401 15.9527C14.5291 16.3121 13.8807 17.1012 13.5916 17.9371L13.4588 18.3277L11.076 18.3512L8.68538 18.3668V16.5699V14.773H9.74007C10.6932 14.773 10.8104 14.7574 10.951 14.6168C11.1854 14.3824 11.1854 13.9684 10.9432 13.7184C10.7948 13.5621 10.6854 13.5621 6.56819 13.5621H2.34163L2.15413 13.7809C1.92757 14.0465 1.91194 14.2965 2.13069 14.5699L2.28694 14.773H4.86507H7.43538V16.9918C7.43538 19.0543 7.44319 19.2184 7.58382 19.3902L7.73225 19.5777L10.6073 19.6168L13.4744 19.6559L13.5682 19.9684C13.9276 21.1871 14.9979 22.1246 16.3026 22.359C17.8729 22.648 19.6307 21.5777 20.076 20.0699L20.2088 19.6168H25.8807H31.5448L31.6463 20.0074C31.8651 20.8512 32.5916 21.6793 33.4744 22.0777C35.3182 22.9293 37.4588 22.0074 38.1307 20.0855L38.2791 19.6559L39.0135 19.6168C39.826 19.5699 40.0682 19.4684 40.3338 19.0465C40.4823 18.8121 40.4901 18.6793 40.4666 16.4918C40.4432 14.2262 40.4432 14.1793 40.2479 13.7184C40.1385 13.4605 39.2635 11.8434 38.3104 10.1246C36.4823 6.83554 36.2479 6.4996 35.6698 6.34335C35.4823 6.28866 34.451 6.25741 33.0057 6.25741H30.6463L30.6229 3.89023C30.5994 1.5621 30.5994 1.53085 30.4198 1.27304C30.0448 0.749601 30.8807 0.788664 19.0213 0.796476C13.0994 0.796476 8.201 0.819914 8.1385 0.843351ZM35.451 7.65585C35.7088 7.95273 39.0057 13.9684 39.1151 14.3355C39.201 14.6324 39.2323 15.1715 39.2323 16.5465V18.3746L38.7557 18.3512L38.2869 18.3277L38.1541 17.9371C37.5604 16.1871 35.7948 15.2184 34.0369 15.6715C32.9041 15.9684 31.9432 16.898 31.6151 18.0152C31.5213 18.3277 31.5213 18.3277 31.076 18.3512L30.6385 18.3746V12.9371V7.50741H32.9823C35.1776 7.50741 35.3338 7.51523 35.451 7.65585ZM17.5057 16.9293C17.9901 17.0699 18.5369 17.5387 18.7791 18.0074C19.0057 18.4449 19.0526 19.1793 18.8885 19.6715C18.7166 20.1871 18.2948 20.6637 17.7948 20.9215C17.3104 21.1715 16.4901 21.2027 16.0057 20.9918C15.5526 20.7965 15.0526 20.2887 14.8573 19.8355C14.6463 19.3355 14.6619 18.4996 14.8963 18.0152C15.2244 17.3512 16.0448 16.8199 16.7791 16.8121C16.951 16.8043 17.2791 16.859 17.5057 16.9293ZM35.6619 16.9605C37.1463 17.5152 37.5291 19.5152 36.3573 20.5699C35.9041 20.9762 35.5369 21.1246 34.9354 21.1246C33.7244 21.1324 32.8416 20.3121 32.7635 19.1168C32.7244 18.4215 32.9119 17.9215 33.4041 17.4371C34.0135 16.8355 34.8573 16.6559 35.6619 16.9605Z" fill="black"/>
<path d="M7.78662 6.58594C7.45068 6.78125 7.44287 6.84375 7.43506 8.8125V10.7109H6.49756C5.59912 10.7109 5.54443 10.7188 5.36475 10.9062C5.10693 11.1562 5.10693 11.5156 5.36475 11.7656L5.55225 11.9609H11.2866C16.9741 11.9609 17.0288 11.9609 17.2319 11.7969C17.521 11.5703 17.521 11.1016 17.2319 10.875C17.0288 10.7109 16.9507 10.7109 12.8569 10.7109H8.68506V8.82812V6.94531L8.4585 6.71875C8.21631 6.47656 8.03662 6.44531 7.78662 6.58594Z" fill="black"/>
<path d="M0.732114 7.55456C0.466489 7.74206 0.489927 8.29675 0.771177 8.52331C0.974302 8.67956 1.0368 8.68737 3.35711 8.66394L5.73211 8.6405L5.88055 8.453C6.08368 8.203 6.07586 7.81237 5.8493 7.60144C5.66961 7.42956 5.62274 7.42956 3.2868 7.42956C1.26336 7.42956 0.880552 7.44519 0.732114 7.55456Z" fill="black"/>
</svg>
